<?xml version="1.0" encoding="UTF-8" standalone="no"?>
<!-- Created with Inkscape (http://www.inkscape.org/) -->

<svg
   xmlns:dc="http://purl.org/dc/elements/1.1/"
   xmlns:cc="http://creativecommons.org/ns#"
   xmlns:rdf="http://www.w3.org/1999/02/22-rdf-syntax-ns#"
   xmlns:svg="http://www.w3.org/2000/svg"
   xmlns="http://www.w3.org/2000/svg"
   xmlns:xlink="http://www.w3.org/1999/xlink"
   xmlns:sodipodi="http://sodipodi.sourceforge.net/DTD/sodipodi-0.dtd"
   xmlns:inkscape="http://www.inkscape.org/namespaces/inkscape"
   width="200"
   height="200"
   viewBox="0 0 52.916665 52.916668"
   version="1.1"
   id="svg8"
   inkscape:version="0.92.4 (5da689c313, 2019-01-14)"
   sodipodi:docname="inner.svg">
  <defs
     id="defs2">
    <linearGradient
       inkscape:collect="always"
       id="linearGradient3727">
      <stop
         style="stop-color:#00c7e1;stop-opacity:1"
         offset="0"
         id="stop3723" />
      <stop
         style="stop-color:#0092d9;stop-opacity:1"
         offset="1"
         id="stop3725" />
    </linearGradient>
    <linearGradient
       inkscape:collect="always"
       xlink:href="#linearGradient3727"
       id="linearGradient3729"
       x1="6.283967"
       y1="222.87245"
       x2="-4.8875299"
       y2="286.41034"
       gradientUnits="userSpaceOnUse" />
    <filter
       id="fox7ic3xua">
      <feColorMatrix
         id="feColorMatrix4536"
         values="0 0 0 0 1.000000 0 0 0 0 1.000000 0 0 0 0 1.000000 0 0 0 1.000000 0"
         in="SourceGraphic" />
    </filter>
  </defs>
  <sodipodi:namedview
     id="base"
     pagecolor="#ffffff"
     bordercolor="#666666"
     borderopacity="1.0"
     inkscape:pageopacity="0.0"
     inkscape:pageshadow="2"
     inkscape:zoom="0.5"
     inkscape:cx="86.571429"
     inkscape:cy="98.571429"
     inkscape:document-units="mm"
     inkscape:current-layer="layer1"
     showgrid="false"
     units="px"
     inkscape:window-width="1850"
     inkscape:window-height="1016"
     inkscape:window-x="70"
     inkscape:window-y="27"
     inkscape:window-maximized="1" />
  <metadata
     id="metadata5">
    <rdf:RDF>
      <cc:Work
         rdf:about="">
        <dc:format>image/svg+xml</dc:format>
        <dc:type
           rdf:resource="http://purl.org/dc/dcmitype/StillImage" />
        <dc:title></dc:title>
      </cc:Work>
    </rdf:RDF>
  </metadata>
  <g
     inkscape:label="Layer 1"
     inkscape:groupmode="layer"
     id="layer1"
     transform="translate(0,-244.08332)">
    <path
       sodipodi:type="star"
       style="fill:url(#linearGradient3729);fill-opacity:1;stroke:none;stroke-width:6.61458302;stroke-miterlimit:4;stroke-dasharray:none;stroke-opacity:1"
       id="path3721"
       sodipodi:sides="10"
       sodipodi:cx="0.69821852"
       sodipodi:cy="254.64139"
       sodipodi:r1="27.095259"
       sodipodi:r2="32.25626"
       sodipodi:arg1="0.17404524"
       sodipodi:arg2="0.48820451"
       inkscape:flatsided="false"
       inkscape:rounded="0"
       inkscape:randomized="0"
       d="m 27.384131,259.33342 1.802056,10.43747 -9.656517,4.35201 -4.677101,9.50332 -10.3703344,-2.1551 -9.3697644,4.93921 -7.1230362,-7.83905 -10.483497,-1.5115 -1.15498,-10.52874 -7.59289,-7.38487 5.254239,-9.19681 -1.802056,-10.43748 9.656517,-4.35201 4.677101,-9.50332 10.3703344,2.15511 9.3697644,-4.93921 7.1230362,7.83904 10.483497,1.5115 1.15498,10.52874 7.59289,7.38488 z"
       inkscape:transform-center-x="-0.59002174"
       inkscape:transform-center-y="0.56105077"
       transform="matrix(0.60659939,-0.5800908,0.60659939,0.5800908,-128.43052,123.23156)" />
    <g
       id="g4549"
       transform="matrix(0.42333348,0,0,0.42333348,14.369728,262.04535)"
       style="fill:none;fill-rule:evenodd">
      <g
         id="g4547">
        <g
           id="g4545"
           transform="translate(-27,-40)"
           style="filter:url(#fox7ic3xua)">
          <g
             id="g4543">
            <path
               id="path4541"
               transform="translate(27.778,30.556)"
               d="M 0.641,31.424 C 0.214,31.042 0,30.469 0,30.087 0,29.705 0.214,29.132 0.641,28.75 l 2.991,-2.674 c 0.855,-0.764 2.137,-0.764 2.992,0 l 0.214,0.191 11.752,11.268 c 0.427,0.382 1.068,0.382 1.495,0 L 48.718,10.99 h 0.214 c 0.854,-0.764 2.136,-0.764 2.991,0 l 2.992,2.673 c 0.854,0.764 0.854,1.91 0,2.674 L 20.726,48.038 c -0.427,0.382 -0.854,0.573 -1.495,0.573 -0.641,0 -1.069,-0.19 -1.496,-0.573 L 1.068,31.997 Z"
               inkscape:connector-curvature="0"
               style="fill:#000000" />
          </g>
        </g>
      </g>
    </g>
  </g>
</svg>
